<svg width="41" height="40" viewBox="0 0 41 40" fill="none" xmlns="http://www.w3.org/2000/svg">
<path d="M36.0556 0C37.2343 0 38.3648 0.468252 39.1983 1.30175C40.0317 2.13524 40.5 3.2657 40.5 4.44444V35.5556C40.5 36.7343 40.0317 37.8648 39.1983 38.6983C38.3648 39.5317 37.2343 40 36.0556 40H4.94444C3.7657 40 2.63524 39.5317 1.80175 38.6983C0.968252 37.8648 0.5 36.7343 0.5 35.5556V4.44444C0.5 3.2657 0.968252 2.13524 1.80175 1.30175C2.63524 0.468252 3.7657 0 4.94444 0H36.0556ZM34.9444 34.4444V22.6667C34.9444 20.7453 34.1812 18.9027 32.8226 17.5441C31.464 16.1855 29.6213 15.4222 27.7 15.4222C25.8111 15.4222 23.6111 16.5778 22.5444 18.3111V15.8444H16.3444V34.4444H22.5444V23.4889C22.5444 21.7778 23.9222 20.3778 25.6333 20.3778C26.4585 20.3778 27.2498 20.7056 27.8332 21.289C28.4167 21.8724 28.7444 22.6638 28.7444 23.4889V34.4444H34.9444ZM9.12222 12.3556C10.1124 12.3556 11.062 11.9622 11.7621 11.2621C12.4622 10.562 12.8556 9.61236 12.8556 8.62222C12.8556 6.55556 11.1889 4.86667 9.12222 4.86667C8.12619 4.86667 7.17095 5.26234 6.46664 5.96664C5.76234 6.67095 5.36667 7.62619 5.36667 8.62222C5.36667 10.6889 7.05556 12.3556 9.12222 12.3556ZM12.2111 34.4444V15.8444H6.05556V34.4444H12.2111Z" fill="#040605"/>
</svg>
